HIERARCHY
ROOT Pelvis
{
	OFFSET 0.000000 0.000000 0.000000
	CHANNELS 6 Xposition Yposition Zposition Xrotation Yrotation Zrotation
	JOINT LeftUpLeg_virtual
	{
		OFFSET 0.000000 0.000000 0.000000
		CHANNELS 3 Xrotation Yrotation Zrotation
		JOINT LeftUpLeg
		{
			OFFSET 18.735201 -5.666702 -4.541200
			CHANNELS 3 Xrotation Yrotation Zrotation
			JOINT LeftLeg
			{
				OFFSET -0.021200 -31.938179 0.493100
				CHANNELS 3 Xrotation Yrotation Zrotation
				JOINT LeftFoot
				{
					OFFSET 0.021200 -31.938179 -4.336299
					CHANNELS 3 Xrotation Yrotation Zrotation
					JOINT LeftToeBase
					{
						OFFSET 0.943001 -26.722000 15.023500
						CHANNELS 3 Xrotation Yrotation Zrotation
						End Site
						{
							OFFSET 0 0 0
						}
					}
				}
			}
		}
	}
	JOINT RightUpLeg_virtual
	{
		OFFSET 0.000000 0.000000 0.000000
		CHANNELS 3 Xrotation Yrotation Zrotation
		JOINT RightUpLeg
		{
			OFFSET -18.735201 -5.666702 -4.541200
			CHANNELS 3 Xrotation Yrotation Zrotation
			JOINT RightLeg
			{
				OFFSET 0.018946 -31.938133 0.493100
				CHANNELS 3 Xrotation Yrotation Zrotation
				JOINT RightFoot
				{
					OFFSET -0.018946 -31.938126 -4.336299
					CHANNELS 3 Xrotation Yrotation Zrotation
					JOINT RightToeBase
					{
						OFFSET -0.943001 -26.722004 15.023500
						CHANNELS 3 Xrotation Yrotation Zrotation
						End Site
						{
							OFFSET 0 0 0
						}
					}
				}
			}
		}
	}
	JOINT Hips_virtual
	{
		OFFSET 0.000000 0.000000 0.000000
		CHANNELS 3 Xrotation Yrotation Zrotation
		JOINT Hips
		{
			OFFSET -0.000000 -0.000000 -0.000000
			CHANNELS 3 Xrotation Yrotation Zrotation
			JOINT Spine
			{
				OFFSET 0.000000 10.199997 -0.299500
				CHANNELS 3 Xrotation Yrotation Zrotation
				JOINT Spine1
				{
					OFFSET 0.000000 11.900002 -1.516600
					CHANNELS 3 Xrotation Yrotation Zrotation
					JOINT Spine2
					{
						OFFSET 0.000000 13.600006 -2.842500
						CHANNELS 3 Xrotation Yrotation Zrotation
						JOINT Neck_virtual
						{
							OFFSET 0.000000 0.000000 0.000000
							CHANNELS 3 Xrotation Yrotation Zrotation
							JOINT Neck
							{
								OFFSET 0.000000 9.624100 -2.890100
								CHANNELS 3 Xrotation Yrotation Zrotation
								JOINT Head
								{
									OFFSET 0.000000 14.068802 -1.351900
									CHANNELS 3 Xrotation Yrotation Zrotation
									End Site
									{
										OFFSET 0 0 0
									}
								}
							}
						}
						JOINT LeftShoulder_virtual
						{
							OFFSET 0.000000 0.000000 0.000000
							CHANNELS 3 Xrotation Yrotation Zrotation
							JOINT LeftShoulder
							{
								OFFSET 15.263000 10.923401 -0.547700
								CHANNELS 3 Xrotation Yrotation Zrotation
								JOINT LeftArm
								{
									OFFSET 25.438599 -2.830597 -13.032500
									CHANNELS 3 Xrotation Yrotation Zrotation
									JOINT LeftForeArm
									{
										OFFSET 29.960503 0.000000 0.000000
										CHANNELS 3 Xrotation Yrotation Zrotation
										JOINT LeftHand
										{
											OFFSET 27.849251 0.000000 0.000000
											CHANNELS 3 Xrotation Yrotation Zrotation
											End Site
											{
												OFFSET 0 0 0
											}
										}
									}
								}
							}
						}
						JOINT RightShoulder_virtual
						{
							OFFSET 0.000000 0.000000 0.000000
							CHANNELS 3 Xrotation Yrotation Zrotation
							JOINT RightShoulder
							{
								OFFSET -15.263000 10.923401 -0.547700
								CHANNELS 3 Xrotation Yrotation Zrotation
								JOINT RightArm
								{
									OFFSET -25.438599 -2.830597 -13.032500
									CHANNELS 3 Xrotation Yrotation Zrotation
									JOINT RightForeArm
									{
										OFFSET -29.960503 0.000000 0.000000
										CHANNELS 3 Xrotation Yrotation Zrotation
										JOINT RightHand
										{
											OFFSET -27.849251 0.000000 0.000000
											CHANNELS 3 Xrotation Yrotation Zrotation
											End Site
											{
												OFFSET 0 0 0
											}
										}
									}
								}
							}
						}
					}
				}
			}
		}
	}
}
MOTION
Frames: 5
Frame Time: 0.03333333
105.033127 78.483147 207.448639 0.000000 0.000000 0.000000 -100.689255 -65.856117 177.085741 -69.971736 14.058381 33.735448 93.784788 0.729830 -9.235816 18.447832 -10.536773 -5.131960 0.000000 0.000000 0.000000 -100.689255 -65.856117 177.085741 -63.553408 29.323518 -54.160801 75.553825 8.275123 -2.209483 -0.290641 0.365994 25.201861 0.000000 0.000000 0.000000 -100.689255 -65.856117 177.085741 0.000000 0.000001 0.000000 11.548387 1.944776 2.096955 4.854284 11.245307 9.491957 0.000000 0.000000 0.000000 -0.264526 4.650232 6.859580 7.118204 2.743579 2.998163 0.000000 0.000000 0.000000 -0.264526 4.650232 6.859580 0.094778 -6.199197 -0.123044 9.665284 -8.508381 -0.913033 -0.000000 -16.045873 0.000006 0.000000 0.000000 0.000000 -0.264526 4.650232 6.859580 0.702718 0.170142 17.086861 -42.474337 9.627228 15.642595 0.000005 21.324551 -0.000005 0.000000 0.000000 0.000000 
108.096512 75.335754 211.233856 0.000000 0.000000 0.000000 -99.984687 -65.138722 176.407039 -70.752837 13.635978 32.717644 94.465143 0.829676 -8.973472 18.719411 -10.397598 -4.564778 0.000000 0.000000 0.000000 -99.984687 -65.138722 176.407039 -64.272073 28.707828 -54.096710 72.010650 7.939572 -2.803163 3.649797 1.229228 27.706941 0.000000 0.000000 0.000000 -99.984687 -65.138722 176.407039 0.000000 0.000000 0.000000 11.647501 1.778256 1.578616 5.544252 11.383316 9.197806 0.000000 0.000000 0.000000 -0.042803 4.627740 6.563422 6.775943 2.675981 2.812852 0.000000 0.000000 0.000000 -0.042803 4.627740 6.563422 0.193426 -6.244324 -0.490225 8.939517 -6.671605 0.394171 -0.000003 -17.704909 -0.000000 0.000000 0.000000 0.000000 -0.042803 4.627740 6.563422 0.757834 0.219491 18.065770 -42.841084 9.112753 16.864212 -0.000005 24.910782 0.000004 0.000000 0.000000 0.000000 
111.102898 71.694000 215.403656 0.000000 0.000000 0.000000 -98.931834 -65.623406 175.898668 -71.352917 12.949932 30.249385 95.282341 1.114854 -8.224811 18.701078 -9.094160 -3.971442 0.000000 0.000000 0.000000 -98.931834 -65.623406 175.898668 -64.000990 27.129216 -55.197214 68.270698 7.581641 -3.516486 6.772332 2.350363 29.952620 0.000000 0.000000 0.000000 -98.931834 -65.623406 175.898668 0.000000 -0.000001 0.000000 11.752258 1.499203 1.472789 5.957495 11.339477 9.012858 0.000000 0.000000 0.000000 0.073766 4.191046 6.295746 6.443433 2.599916 2.644406 0.000000 0.000000 0.000000 0.073766 4.191046 6.295746 0.268091 -6.237657 -0.973500 7.893504 -4.110898 1.992688 0.000007 -21.678773 0.000001 0.000000 0.000000 0.000000 0.073766 4.191046 6.295746 0.787630 0.240687 18.556507 -42.487926 7.719447 18.634655 -0.000018 29.131276 -0.000010 0.000000 0.000000 0.000000 
114.250130 67.480240 219.621765 0.000000 0.000000 0.000000 -98.806234 -65.375128 173.762813 -72.833292 11.263397 28.259978 96.235152 1.486428 -7.357103 20.241102 -8.667269 -3.388905 0.000000 0.000000 0.000000 -98.806234 -65.375128 173.762813 -66.109551 27.071477 -54.362169 67.253977 8.189534 -5.434243 8.957720 3.196220 32.831418 0.000000 0.000000 0.000000 -98.806234 -65.375128 173.762813 0.000000 0.000000 0.000000 11.871099 1.253847 1.721319 6.189663 11.236937 8.879468 0.000000 0.000000 0.000000 0.150937 3.491582 6.062961 6.182253 2.522301 2.501053 0.000000 0.000000 0.000000 0.150937 3.491582 6.062961 0.299032 -6.173944 -1.669668 6.360270 2.416607 3.605608 -0.000006 -28.398070 0.000010 0.000000 0.000000 0.000000 0.150937 3.491582 6.062961 1.035443 0.349695 19.024061 -41.972940 5.617787 20.313730 0.000004 34.549559 -0.000003 0.000000 0.000000 0.000000 
118.011078 62.515751 224.713745 0.000000 0.000000 0.000000 -100.137629 -62.934565 171.151304 -73.564757 10.367301 25.208512 95.166836 3.808792 -6.491834 21.948019 -7.685374 -4.499393 0.000000 0.000000 0.000000 -100.137629 -62.934565 171.151304 -70.659905 26.287767 -51.431109 60.491290 6.780557 -6.331298 16.295911 6.979210 32.655350 0.000000 0.000000 0.000000 -100.137629 -62.934565 171.151304 0.000000 0.000001 0.000000 12.017132 1.195814 2.181810 6.471734 11.084017 8.784411 0.000000 0.000000 0.000000 0.445381 2.770601 5.891444 6.048208 2.438491 2.384244 0.000000 0.000000 0.000000 0.445381 2.770601 5.891444 0.150620 -6.043553 -3.147663 4.885610 7.041738 4.864242 0.000005 -28.737051 0.000003 0.000000 0.000000 0.000000 0.445381 2.770601 5.891444 0.910764 0.309279 19.874512 -41.661155 4.331586 22.138648 -0.000000 40.042872 -0.000004 0.000000 0.000000 0.000000 
